<svg width="353" height="225" viewBox="0 0 353 225" fill="none" xmlns="http://www.w3.org/2000/svg">
<g clip-path="url(#clip0_8_46)">
<path fill-rule="evenodd" clip-rule="evenodd" d="M139.32 -9.8637C179.605 -7.82284 199.24 24.1263 227.46 44.8604C255.086 65.158 302.457 79.8051 299.901 108.12C297.355 136.319 241.67 141.814 216.732 163.681C185.615 190.965 188.339 246.595 139.32 248.923C91.1213 251.212 73.9955 202.019 50.9388 171.554C36.0142 151.834 34.9159 130.508 32.7566 108.12C30.324 82.8991 18.6318 56.4658 37.7926 35.2516C60.3007 10.3312 98.0442 -11.9548 139.32 -9.8637Z" fill="#AFB5D9"/>
<path d="M18.4175 224.497C18.3939 224.387 16.11 213.346 20.7743 204.176C25.4385 195.006 35.3948 190.962 35.4948 190.922L35.9499 190.741L36.0573 191.244C36.081 191.354 38.3648 202.395 33.7006 211.565C29.0365 220.735 19.08 224.779 18.98 224.819L18.5248 225L18.4175 224.497ZM35.3258 191.968C33.3315 192.878 25.4605 196.858 21.5211 204.603C17.5813 212.348 18.77 221.508 19.149 223.773C21.1425 222.866 29.0104 218.892 32.9537 211.139C36.8933 203.393 35.705 194.235 35.3258 191.968V191.968Z" fill="#F1F1F1"/>
<path d="M30.1362 208.349C21.7542 213.695 18.5261 224.314 18.5261 224.314C18.5261 224.314 28.8877 226.265 37.2696 220.919C45.6515 215.573 48.8797 204.954 48.8797 204.954C48.8797 204.954 38.5181 203.003 30.1362 208.349Z" fill="#F1F1F1"/>
<path d="M157.07 122.647C157.198 121.947 157.179 121.227 157.016 120.536C156.852 119.844 156.548 119.2 156.124 118.647C155.7 118.094 155.168 117.646 154.563 117.335C153.958 117.024 153.297 116.858 152.625 116.847L148.743 106.499L142.236 107.466L147.911 121.998C147.969 123.196 148.44 124.33 149.234 125.184C150.028 126.039 151.09 126.555 152.219 126.635C153.347 126.715 154.465 126.353 155.359 125.618C156.253 124.883 156.862 123.826 157.07 122.647Z" fill="#9F616A"/>
<path d="M145.081 119.011L143.065 113.914L130.5 88.5584L131.184 41.6423L131.315 41.6239C139.354 40.4978 144.794 79.7696 145.022 81.442L152.961 110.225L154.85 116.569L145.081 119.011Z" fill="#6C63FF"/>
<path d="M125.775 217.941L131.884 217.94L134.79 192.96L125.774 192.961L125.775 217.941Z" fill="#9F616A"/>
<path d="M124.217 215.826L136.248 215.826H136.248C138.281 215.826 140.231 216.682 141.669 218.207C143.107 219.731 143.915 221.798 143.915 223.954V224.218L124.217 224.219L124.217 215.826Z" fill="#2F2E41"/>
<path d="M69.6048 208.073L74.6173 211.776L90.4737 193.043L83.0761 187.578L69.6048 208.073Z" fill="#9F616A"/>
<path d="M69.4668 205.394L79.3376 212.686L79.338 212.686C81.0061 213.919 82.1442 215.804 82.5017 217.926C82.8593 220.048 82.4071 222.233 81.2447 224.002L81.1022 224.219L64.941 212.28L69.4668 205.394Z" fill="#2F2E41"/>
<path d="M122.418 212.069L122.154 165.208L118.31 135.742L111.143 161.655L111.13 161.676L85.1595 201.646L75.0543 196.218L75.1097 196.078C75.7272 194.521 90.279 157.948 94.1904 157.948C94.532 157.974 94.8742 157.911 95.1877 157.765C95.5012 157.619 95.7765 157.394 95.9899 157.11C97.1379 155.485 96.203 152.036 96.1934 152.002C95.0737 147.08 97.889 145.403 98.4497 145.124L99.9579 112.118L100.114 112.13L141 115.17L139.285 156.435L135.595 210.501L135.468 210.516L122.418 212.069Z" fill="#2F2E41"/>
<path d="M141.625 122.484L141.448 122.468L97.4763 118.711L97.5848 103.287L99.737 63.0143L99.7492 62.9864L108.514 42.8143L114.727 39.8318L123.792 39.3261L123.814 39.332L132.086 41.5048L140.692 106.996L141.625 122.484Z" fill="#6C63FF"/>
<path d="M125.212 34.1564C130.822 30.9051 132.884 23.4477 129.817 17.4999C126.75 11.5522 119.716 9.3663 114.106 12.6176C108.495 15.869 106.433 23.3263 109.5 29.2741C112.567 35.2219 119.602 37.4077 125.212 34.1564Z" fill="#9F616A"/>
<path d="M108.016 26.4679V21.6859C108.016 21.6859 104.378 17.144 108.379 15.9999C108.379 15.9999 109.471 4.55875 118.929 9.89794C118.929 9.89794 132.024 7.60972 130.569 15.6185C130.569 15.6185 133.843 13.5277 132.752 18.8669L130.641 27.4674C130.641 27.4674 131.661 21.7861 128.387 21.0234L126.568 19.8792C126.568 19.8792 121.475 25.2184 113.836 18.7351C113.836 18.7351 110.562 17.9068 110.926 21.3391C111.289 24.7714 108.016 26.4679 108.016 26.4679Z" fill="#2F2E41"/>
<path d="M118.453 110.965C118.461 110.253 118.321 109.548 118.043 108.899C117.765 108.25 117.357 107.674 116.846 107.21C116.336 106.747 115.736 106.408 115.088 106.217C114.441 106.026 113.762 105.988 113.099 106.106L107.528 96.664L101.291 98.8532L109.333 112.07C109.593 113.237 110.248 114.263 111.174 114.953C112.1 115.642 113.232 115.948 114.356 115.812C115.48 115.676 116.518 115.107 117.273 114.214C118.029 113.321 118.448 112.165 118.453 110.965Z" fill="#9F616A"/>
<path d="M104.067 107.989L93.9892 86.2991L93.9981 86.2463C94.0387 86.0062 98.0952 62.1284 101.198 53.3516C104.32 44.5192 108.593 42.7459 108.774 42.6747L108.864 42.6391L112.696 46.5357L107.388 84.0961L113.109 102.211L104.067 107.989Z" fill="#6C63FF"/>
<path d="M353 0H333.488V20.6853H353V0Z" fill="#F1F1F1"/>
<path d="M200.297 80.4926H180.785V101.178H200.297V80.4926Z" fill="#F1F1F1"/>
<path d="M191.737 92.1135H345.998V9.32362H191.737V92.1135Z" fill="white"/>
<path d="M347.271 93.4626H190.465V7.97453H347.271V93.4626ZM193.01 90.7645H344.726V10.6726H193.01V90.7645Z" fill="#E5E5E5"/>
<path d="M328.94 38.3648H210.254V42.5374H328.94V38.3648Z" fill="#E5E5E5"/>
<path d="M328.94 48.484H210.254V52.6566H328.94V48.484Z" fill="#E5E5E5"/>
<path d="M328.94 63.4252H306.883V67.0464H328.94V63.4252Z" fill="#6C63FF"/>
<path d="M162.034 224.982H0.424174C0.311676 224.982 0.203785 224.934 0.124237 224.85C0.0446893 224.766 0 224.651 0 224.532C0 224.413 0.0446893 224.299 0.124237 224.214C0.203785 224.13 0.311676 224.082 0.424174 224.082H162.034C162.147 224.082 162.255 224.13 162.334 224.214C162.414 224.299 162.459 224.413 162.459 224.532C162.459 224.651 162.414 224.766 162.334 224.85C162.255 224.934 162.147 224.982 162.034 224.982Z" fill="#CBCBCB"/>
</g>
<defs>
<clipPath id="clip0_8_46">
<rect width="353" height="225" fill="white"/>
</clipPath>
</defs>
</svg>
